<svg xmlns="http://www.w3.org/2000/svg" viewBox="0 0 64 64">
  <defs>
    <linearGradient id="background" x1="9" y1="7" x2="54" y2="57" gradientUnits="userSpaceOnUse">
      <stop stop-color="#162442"/>
      <stop offset="1" stop-color="#0B1020"/>
    </linearGradient>
    <linearGradient id="eye" x1="9" y1="22" x2="55" y2="43" gradientUnits="userSpaceOnUse">
      <stop stop-color="#67E8F9"/>
      <stop offset=".5" stop-color="#5EEAD4"/>
      <stop offset="1" stop-color="#818CF8"/>
    </linearGradient>
    <linearGradient id="iris" x1="24" y1="24" x2="41" y2="41" gradientUnits="userSpaceOnUse">
      <stop stop-color="#22D3EE"/>
      <stop offset="1" stop-color="#6366F1"/>
    </linearGradient>
  </defs>
  <rect x="2" y="2" width="60" height="60" rx="14" fill="url(#background)"/>
  <path d="M8.8 32c5.3-9.3 13.3-13.9 23.2-13.9S49.9 22.7 55.2 32C49.9 41.3 41.9 45.9 32 45.9S14.1 41.3 8.8 32Z" fill="#0D172B" stroke="url(#eye)" stroke-width="4.2" stroke-linejoin="round"/>
  <circle cx="32" cy="32" r="9.8" fill="url(#iris)"/>
  <circle cx="32" cy="32" r="6.7" fill="#0B1020" fill-opacity=".86"/>
  <path d="M30.4 27.2c-1.1-.7-2.5.1-2.5 1.4v6.8c0 1.3 1.4 2.1 2.5 1.4l5.9-3.4c1.1-.6 1.1-2.2 0-2.8l-5.9-3.4Z" fill="#ECFEFF"/>
</svg>
